<?xml version="1.0" standalone="no"?>
<!DOCTYPE svg PUBLIC "-//W3C//DTD SVG 20010904//EN"
 "http://www.w3.org/TR/2001/REC-SVG-20010904/DTD/svg10.dtd">
<svg version="1.0" xmlns="http://www.w3.org/2000/svg"
 width="512.000000pt" height="512.000000pt" viewBox="0 0 512.000000 512.000000"
 preserveAspectRatio="xMidYMid meet">
<metadata>
Created by potrace 1.14, written by Peter Selinger 2001-2017
</metadata>
<g transform="translate(0.000000,512.000000) scale(0.100000,-0.100000)"
fill="#000000" stroke="none">
<path d="M1923 4723 c7 -190 28 -288 91 -418 68 -138 166 -258 284 -348 28
-22 52 -40 52 -41 0 0 -17 -2 -38 -3 -39 -2 -146 -13 -172 -18 -8 -1 -33 -6
-55 -9 -177 -28 -427 -113 -620 -210 -308 -156 -504 -314 -742 -598 -97 -117
-212 -311 -306 -518 -47 -103 -118 -331 -133 -425 -3 -22 -7 -42 -9 -45 -3 -5
-7 -30 -24 -150 -5 -36 -8 -148 -6 -250 3 -205 21 -322 77 -485 27 -81 99
-233 130 -277 10 -14 9 -20 -4 -35 -9 -10 -32 -50 -50 -88 -30 -64 -33 -78
-33 -165 0 -86 3 -100 27 -142 82 -138 245 -176 423 -97 17 7 44 24 61 36 l31
23 104 -54 c148 -78 307 -128 482 -154 29 -4 140 -7 247 -7 221 1 339 16 533
71 l118 34 77 -24 c94 -30 145 -43 197 -52 22 -3 42 -7 46 -9 40 -25 607 -26
648 -1 3 2 22 7 41 10 67 11 88 16 176 42 508 147 927 511 1113 965 63 155 98
306 107 461 l6 98 -487 0 c-458 0 -486 1 -481 18 22 76 51 207 62 282 2 19 7
46 10 60 10 44 12 332 3 415 -12 107 -35 217 -64 310 -25 77 -96 233 -133 290
-19 30 -19 30 4 60 81 108 102 270 50 377 l-28 56 43 39 c24 21 75 67 113 103
38 36 77 72 86 80 9 8 43 40 76 70 166 154 283 261 314 289 l35 30 -158 156
c-87 85 -161 155 -165 155 -10 0 -59 -53 -147 -160 -38 -47 -72 -87 -75 -90
-3 -3 -28 -32 -55 -65 -28 -33 -60 -71 -72 -85 -12 -14 -31 -36 -43 -50 -12
-14 -54 -64 -93 -112 -39 -48 -73 -86 -74 -85 -1 2 -5 25 -8 52 -49 392 -330
709 -723 817 -71 20 -107 22 -476 26 l-399 4 6 -159z m1407 -967 c0 -3 -19
-18 -43 -33 l-42 -29 -55 33 -55 33 98 0 c53 0 97 -2 97 -4z"/>
</g>
</svg>
