<?xml version="1.0" standalone="no"?>
<!DOCTYPE svg PUBLIC "-//W3C//DTD SVG 20010904//EN"
 "http://www.w3.org/TR/2001/REC-SVG-20010904/DTD/svg10.dtd">
<svg version="1.0" xmlns="http://www.w3.org/2000/svg"
 width="1920.000000pt" height="1920.000000pt" viewBox="0 0 1920.000000 1920.000000"
 preserveAspectRatio="xMidYMid meet">
<metadata>
Created by potrace 1.11, written by Peter Selinger 2001-2013
</metadata>
<g transform="translate(0.000000,1920.000000) scale(0.100000,-0.100000)"
fill="#000000" stroke="none">
<path d="M9270 17684 c-457 -58 -894 -236 -1270 -517 -125 -94 -397 -366 -489
-489 -234 -315 -391 -659 -470 -1028 -70 -329 -70 -731 0 -1060 79 -369 236
-713 470 -1028 87 -117 363 -394 474 -476 44 -33 84 -63 88 -67 9 -7 -82 -186
-138 -274 -18 -27 -56 -97 -85 -155 -29 -58 -67 -127 -85 -155 -18 -27 -65
-113 -105 -190 -40 -77 -87 -162 -105 -190 -18 -27 -52 -88 -75 -135 -23 -47
-52 -98 -64 -115 -12 -16 -60 -102 -105 -190 -46 -88 -89 -167 -96 -175 -7 -8
-45 -78 -85 -155 -40 -77 -83 -153 -95 -170 -12 -16 -59 -102 -104 -190 -46
-88 -89 -167 -96 -175 -7 -8 -45 -78 -85 -155 -40 -77 -83 -154 -95 -170 -13
-17 -53 -91 -90 -165 -37 -74 -82 -157 -100 -185 -18 -27 -65 -113 -105 -190
-40 -77 -87 -162 -105 -190 -18 -27 -56 -97 -85 -155 -29 -58 -67 -127 -85
-155 -18 -27 -65 -113 -105 -190 -40 -77 -87 -162 -105 -190 -18 -27 -52 -88
-75 -135 -23 -47 -52 -98 -64 -115 -12 -16 -60 -102 -105 -190 -46 -88 -89
-167 -96 -175 -7 -8 -47 -80 -89 -160 -42 -80 -80 -151 -84 -158 -7 -9 -21 -8
-68 8 -162 56 -361 102 -544 125 -162 20 -478 20 -640 0 -465 -58 -899 -234
-1280 -518 -125 -94 -397 -366 -489 -489 -280 -377 -446 -784 -506 -1241 -20
-156 -20 -478 0 -634 60 -457 226 -864 506 -1241 92 -123 364 -395 489 -489
381 -284 815 -460 1280 -518 162 -20 478 -20 640 0 465 58 899 234 1280 518
125 94 397 366 489 489 280 377 446 784 506 1241 20 156 20 478 0 634 -60 457
-226 864 -506 1241 -87 117 -363 394 -474 476 -44 33 -84 63 -89 67 -8 7 131
286 159 319 7 8 45 78 85 155 40 77 83 154 95 170 13 17 46 78 75 135 29 58
67 128 85 155 18 28 65 113 105 190 40 77 87 163 105 190 18 28 56 97 85 155
29 58 67 128 85 155 18 28 65 113 105 190 40 77 87 163 105 190 18 28 58 102
90 165 31 63 67 129 79 145 12 17 60 102 105 190 46 88 89 167 96 175 7 8 45
78 85 155 40 77 83 154 95 170 12 17 59 102 104 190 46 88 89 167 96 175 7 8
45 78 85 155 40 77 83 154 95 170 13 17 46 78 75 135 29 58 67 128 85 155 18
28 65 113 105 190 40 77 87 163 105 190 18 28 56 97 85 155 29 58 67 128 85
155 17 28 58 100 90 160 31 61 60 113 64 118 4 4 34 -2 67 -13 275 -96 550
-140 864 -140 356 0 651 55 967 179 l123 49 21 -37 c12 -20 38 -61 57 -91 20
-30 46 -71 57 -90 12 -19 53 -82 90 -140 76 -117 124 -191 170 -265 18 -27 49
-77 70 -110 49 -75 102 -159 131 -205 63 -100 122 -194 172 -270 56 -85 98
-151 157 -245 18 -27 49 -77 70 -110 21 -33 49 -76 61 -95 84 -135 140 -222
229 -360 65 -100 92 -141 170 -265 20 -30 52 -81 72 -112 20 -32 47 -74 59
-93 63 -100 122 -194 172 -270 31 -47 71 -109 89 -137 46 -72 96 -152 140
-220 20 -32 47 -74 59 -93 84 -135 140 -222 229 -360 38 -58 83 -129 102 -157
88 -139 108 -171 129 -203 42 -67 117 -185 139 -220 12 -19 44 -69 70 -110 26
-41 73 -113 103 -160 31 -47 70 -107 87 -135 18 -27 49 -77 70 -110 21 -33 49
-76 61 -95 23 -38 95 -151 152 -240 19 -30 40 -64 47 -74 10 -18 6 -24 -39
-59 -89 -69 -349 -339 -424 -439 -280 -375 -447 -784 -507 -1241 -20 -156 -20
-478 0 -634 60 -457 226 -864 506 -1241 92 -123 364 -395 489 -489 381 -284
815 -460 1280 -518 162 -20 478 -20 640 0 465 58 899 234 1280 518 125 94 397
366 489 489 280 377 446 784 506 1241 20 156 20 478 0 634 -60 457 -226 864
-506 1241 -92 123 -364 395 -489 489 -381 284 -815 460 -1280 518 -162 20
-478 20 -640 0 -216 -27 -438 -82 -622 -155 l-98 -38 -30 52 c-17 28 -49 78
-70 111 -56 86 -100 158 -135 218 -16 29 -43 72 -59 97 -17 25 -47 72 -68 105
-20 33 -53 83 -73 110 -20 28 -53 77 -74 110 -21 33 -60 94 -86 135 -26 41
-63 100 -82 130 -20 30 -43 66 -53 80 -9 14 -25 41 -35 60 -9 19 -32 58 -50
85 -18 28 -51 79 -73 115 -23 36 -57 88 -77 115 -20 28 -53 77 -74 110 -21 33
-60 94 -86 135 -26 41 -55 86 -64 100 -10 14 -26 41 -36 60 -9 19 -32 59 -51
87 -42 64 -88 137 -142 223 -23 36 -57 88 -77 115 -20 28 -55 79 -77 115 -23
36 -54 84 -70 108 -15 24 -35 57 -44 75 -9 18 -31 56 -50 84 -42 64 -88 137
-142 223 -23 36 -57 88 -77 115 -20 28 -53 77 -74 110 -21 33 -60 94 -86 135
-26 41 -55 86 -64 100 -10 14 -26 41 -36 60 -9 19 -32 59 -51 87 -42 64 -88
137 -142 223 -23 36 -57 88 -77 115 -20 28 -55 79 -77 115 -23 36 -54 84 -70
108 -15 24 -35 57 -44 75 -9 18 -31 56 -50 84 -52 79 -136 212 -212 333 -23
36 -57 88 -77 115 -49 68 -102 151 -132 205 -13 25 -41 72 -62 104 l-37 60
176 175 c100 99 208 219 249 273 280 379 446 784 506 1241 20 156 20 478 0
634 -60 457 -226 864 -506 1241 -92 123 -364 395 -489 489 -381 284 -815 460
-1280 518 -153 19 -501 18 -650 -1z"/>
</g>
</svg>
